<?xml version="1.0" encoding="UTF-8"?>
<svg xmlns="http://www.w3.org/2000/svg" xmlns:xlink="http://www.w3.org/1999/xlink" width="256px" height="256px" viewBox="0 0 256 256" version="1.1">
<g id="surface1">
<path style=" stroke:none;fill-rule:nonzero;fill:rgb(100%,78.039216%,78.039216%);fill-opacity:1;" d="M 123.332031 0 C 55.21875 0 0 55.21875 0 123.332031 C 0 191.449219 55.21875 246.667969 123.332031 246.667969 C 191.449219 246.667969 246.667969 191.449219 246.667969 123.332031 C 246.667969 55.21875 191.449219 0 123.332031 0 Z M 123.332031 231.421875 C 63.390625 231.421875 14.800781 182.832031 14.800781 122.890625 C 14.800781 62.949219 63.390625 14.355469 123.332031 14.355469 C 183.273438 14.355469 231.867188 62.949219 231.867188 122.890625 C 231.839844 182.8125 183.253906 231.375 123.332031 231.375 Z M 123.332031 231.421875 "/>
<path style=" stroke:none;fill-rule:nonzero;fill:rgb(100%,78.039216%,78.039216%);fill-opacity:1;" d="M 123.332031 18.007812 C 65.300781 18.007812 18.253906 65.050781 18.253906 123.085938 C 18.253906 181.121094 65.300781 228.167969 123.332031 228.167969 C 181.367188 228.167969 228.414062 181.121094 228.414062 123.085938 C 228.332031 65.085938 181.332031 18.089844 123.332031 18.007812 Z M 123.332031 18.007812 "/>
<path style=" stroke:none;fill-rule:nonzero;fill:rgb(6.666667%,6.666667%,6.666667%);fill-opacity:1;" d="M 192.246094 91.179688 C 195.097656 97.617188 196.539062 104.566406 196.222656 111.425781 C 195.960938 118.285156 193.949219 124.960938 190.75 130.910156 C 187.539062 136.863281 183.148438 142.132812 178.230469 146.542969 C 176.066406 148.425781 173.855469 150.167969 171.554688 151.714844 C 169.273438 153.203125 167.082031 154.613281 164.746094 155.847656 C 148.632812 164.652344 130.542969 167.996094 113.300781 166.078125 L 107.550781 199.324219 C 106.679688 203.886719 87.679688 203.777344 86.332031 199.140625 L 70.605469 97.71875 C 60.96875 100.566406 53.386719 101.949219 53.105469 99.96875 L 52.800781 98.761719 L 46.933594 75.480469 L 61.972656 64.40625 C 72.820312 56.414062 84.988281 51.359375 97.113281 48.867188 C 109.269531 46.347656 121.476562 46.335938 133.1875 48.566406 C 144.886719 50.769531 156.171875 55.167969 166.203125 61.789062 C 168.660156 63.542969 171.109375 65.289062 173.417969 67.21875 L 176.78125 70.253906 C 177.921875 71.269531 178.9375 72.257812 180.078125 73.464844 C 185.160156 78.753906 189.398438 84.722656 192.242188 91.179688 Z M 156.136719 117.496094 C 157.011719 114.003906 155.816406 110.433594 153.507812 108.355469 C 152.398438 107.292969 151.148438 106.527344 149.941406 105.992188 C 149.007812 105.375 147.652344 104.78125 146.609375 104.140625 C 145.4375 103.566406 144.195312 103.105469 143.027344 102.578125 C 138.082031 100.808594 132.667969 100.042969 127.339844 100.285156 C 126.433594 100.320312 125.535156 100.429688 124.636719 100.527344 L 117.277344 143.089844 C 128.671875 141.371094 139.347656 136.535156 147.417969 129.542969 C 148.710938 128.492188 149.910156 127.257812 151.035156 126.148438 C 152.109375 125.039062 153.046875 123.855469 153.90625 122.695312 C 154.988281 120.984375 155.742188 119.25 156.136719 117.5 Z M 156.136719 117.496094 "/>
</g>
</svg>
